<svg version="1.2" xmlns="http://www.w3.org/2000/svg" width="1000" height="500"><path fill-rule="evenodd" d="M94.9 60.7V215H72.7V60.7H23V41.2h121.5v19.5zm164.5 88.8q0 16.3-4.1 29-3.9 12.6-11.4 21.3-7.3 8.5-17.9 13.1-10.6 4.5-23.8 4.5-12.2 0-22.6-4.5-10.3-4.6-17.9-13.1-7.5-8.7-11.8-21.3-4.2-12.7-4.2-29 0-16.2 4-28.6 4-12.6 11.4-21.2 7.3-8.7 17.9-13.1 10.7-4.5 23.9-4.5 12.3 0 22.6 4.5 10.3 4.4 17.8 13.1 7.6 8.6 11.8 21.2 4.3 12.4 4.3 28.6zm-91.3 0q0 24.8 8.1 37.4 8.2 12.5 26.5 12.5t26.2-12.5q8.1-12.6 8.1-37.4 0-24.8-8.2-37.1-8.1-12.3-26.4-12.3-18.3 0-26.3 12.3t-8 37.1zm155.3 66.7L274 84.5h22.5l25.5 72.9q1.7 4.7 3.3 9.9 1.8 5.3 3.3 10.5 1.5 5.2 2.6 10.1 1 4.9 1.5 9h.7q.6-2.9 1.9-8.1 1.3-5.1 2.9-10.8 1.6-5.8 3.3-11.4 1.8-5.6 3.1-9.5l23.7-72.6h22.3L339 232q-3.3 9.6-7.2 17.4-3.8 7.6-8.9 12.9-5.2 5.4-12.1 8.3-6.8 2.9-16.4 2.9-6.1 0-10.7-.6-4.5-.7-7.7-1.4v-17.3q2.5.6 6.3 1.1 3.8.4 8 .4 5.7 0 9.8-1.4 4.2-1.4 7.3-4 3.1-2.6 5.2-6.4 2.3-3.8 4.1-8.7zm119 0L392.9 84.5h22.5l25.5 72.9q1.7 4.7 3.4 10 1.7 5.2 3.2 10.4 1.5 5.2 2.6 10.1 1 4.9 1.5 9.1h.7q.6-3 1.9-8.1 1.3-5.1 2.9-10.8 1.7-5.9 3.3-11.5 1.8-5.5 3.1-9.5l23.7-72.6h22.3L457.9 232q-3.3 9.6-7.2 17.4-3.8 7.6-8.9 12.9-5.2 5.4-12 8.3-6.9 2.9-16.5 2.9-6.1 0-10.6-.6-4.6-.7-7.8-1.4v-17.3q2.5.6 6.3 1.1 3.8.4 8 .4 5.7 0 9.9-1.3 4.1-1.5 7.2-4.1 3.1-2.6 5.2-6.4 2.3-3.8 4.1-8.7zM553 84.5V215h-21.6V84.5zm-23.3-35.3q0-7.1 3.6-10.3 3.7-3.2 9-3.2 2.6 0 4.9.8 2.4.7 4 2.4 1.8 1.6 2.8 4.3 1 2.5 1 6 0 6.9-3.8 10.4-3.7 3.3-8.9 3.3-5.3 0-9-3.3-3.6-3.4-3.6-10.4zm123.6 32.9q11.2 0 20.4 4.3 9.1 4.3 15.5 12.9 6.6 8.4 10.1 21 3.6 12.6 3.6 29.2 0 16.8-3.6 29.5-3.5 12.6-10.1 21.2-6.4 8.5-15.5 12.9-9.2 4.3-20.4 4.3-7 0-12.7-1.5-5.7-1.6-10.3-4.1-4.5-2.6-8.1-6-3.5-3.5-6.2-7.3h-1.4l-4.4 16.5h-15.8V30.1H616v44.7q0 4.1-.1 8.9-.1 4.6-.4 8.7-.2 4.7-.4 9.2h.9q2.7-4.1 6.2-7.7 3.4-3.6 7.9-6.2 4.7-2.6 10.4-4 5.7-1.6 12.8-1.6zm-4.1 18q-9.5 0-16 3.1-6.3 3-10.2 9.1-3.8 6.2-5.4 15.5-1.6 9.3-1.6 21.7 0 12 1.6 21.4 1.6 9.3 5.4 15.7 3.9 6.3 10.4 9.7 6.4 3.2 16 3.2 16.1 0 23.5-13 7.6-12.9 7.6-37.2 0-24.7-7.6-37-7.4-12.2-23.7-12.2zm177 114.9h-15.6l-4.4-18h-1q-3.9 5.3-7.8 9.2-3.9 3.8-8.6 6.3-4.6 2.5-10.3 3.7-5.7 1.2-13.2 1.2-8.2 0-15.1-2.2-6.9-2.4-12-7.2-5-4.8-7.8-12.1-2.9-7.4-2.9-17.4 0-19.4 13.7-29.9 13.8-10.5 41.8-11.4l21.9-.9v-8.2q0-7.9-1.8-13.3-1.7-5.3-5-8.5-3.2-3.4-8.1-4.8-4.7-1.4-10.9-1.4-9.9 0-18.4 2.8-8.5 2.9-16.3 6.9l-7.6-16.2q8.8-4.8 19.6-8.1 10.8-3.4 22.7-3.4 12.1 0 20.9 2.5 8.9 2.4 14.6 7.8 5.9 5.2 8.7 13.4 2.9 8.2 2.9 19.9zm-55.3-15.1q7.2 0 13.4-2.3t10.7-6.8q4.5-4.6 7-11.5 2.6-7 2.6-16.4v-11.8l-17 .9q-10.7.4-17.9 2.3-7.3 1.9-11.7 5.4-4.2 3.3-6.1 8.2-1.9 4.7-1.9 10.8 0 10.9 5.7 16 5.8 5.2 15.2 5.2zM969.4 215h-21.6v-84.1q0-15.4-6.3-23.2-6.2-7.7-19.5-7.7-9.7 0-16.2 3.1t-10.6 9.2q-3.9 6-5.7 14.8-1.7 8.8-1.7 20.2V215h-21.6V84.4h17.6l3.1 17.6h1.2q3-5.1 7-8.8 4.2-3.8 9-6.3 4.9-2.5 10.4-3.7 5.4-1.1 11.1-1.1 21.8 0 32.7 11.4 11.1 11.3 11.1 36.2z"/><path fill-rule="evenodd" d="M920.4 366.2q.2 2.4.2 4.9c.3 57.7-89.2 105.7-199.8 107C610.1 479.5 520.2 433.8 520 376c-.3-57.8 89.2-105.7 199.8-107.1 25.8-.3 50.5 2 73.2 6.3-7.8-14.9-17.6-27.7-28.6-37.4 89.1 13 155.9 67.3 156.2 133.3q0-2.5-.2-4.9z" style="fill:#16a34a"/><path d="M435.7 330v68h-11.3v-68zm-12.1-18.4q0-3.7 1.9-5.4 1.9-1.7 4.7-1.7 1.3 0 2.5.5 1.2.3 2.1 1.2.9.9 1.4 2.2.6 1.3.6 3.2 0 3.6-2 5.4-1.9 1.7-4.6 1.7-2.8 0-4.7-1.7-1.9-1.8-1.9-5.4zm74.4 67.8q0 4.9-1.8 8.6-1.8 3.7-5.2 6.3-3.4 2.5-8.1 3.7-4.8 1.2-10.7 1.2-6.8 0-11.6-1-4.9-1.1-8.5-3.2v-10.3q1.9 1 4.3 2 2.3.9 4.9 1.6 2.6.8 5.3 1.3 2.8.4 5.6.4 4 0 6.8-.7t4.6-1.9q1.7-1.3 2.6-3.1.8-1.8.8-4.1 0-1.9-.7-3.4-.6-1.6-2.3-3.1-1.6-1.5-4.4-3.1-2.9-1.5-7.3-3.4-4.5-2-8.1-3.8-3.5-1.9-6-4.2-2.5-2.3-3.8-5.2-1.3-3.1-1.3-7.2 0-4.4 1.7-7.7 1.7-3.4 4.8-5.7 3.1-2.3 7.4-3.5 4.4-1.2 9.7-1.2 6 0 10.9 1.4 5.1 1.3 9.5 3.4l-3.9 9.1q-4-1.8-8.3-3.1-4.2-1.4-8.6-1.4-6.3 0-9.3 2.1-3.1 2.1-3.1 5.9 0 2.2.7 3.8.7 1.6 2.5 3 1.7 1.4 4.6 2.9 2.9 1.4 7.3 3.2 4.4 1.9 7.9 3.8 3.5 1.8 6 4.2 2.5 2.3 3.8 5.2 1.3 3 1.3 7.2z"/><path fill-rule="evenodd" d="M613.3 328.9h23.5v10.3l-10.1 3.1q1.3 2.1 1.8 4.4.5 2.2.5 4.8 0 5.3-1.7 9.7-1.7 4.3-5 7.4-3.2 3.1-8.2 4.9-5 1.6-11.5 1.6-1.4 0-3.1-.1-1.7-.2-2.5-.4-1.2 1.1-2 2.3-.7 1.1-.7 2.7 0 1.3.8 2.1.9.8 2.2 1.2 1.3.5 3 .7 1.7.1 3.6.1h10.8q5 0 8.9 1.2 4 1.1 6.7 3.4 2.8 2.4 4.3 6t1.5 8.7q0 5.8-2.4 10.6-2.3 4.7-7 8.1-4.7 3.2-11.6 5-6.9 1.8-16.1 1.8-7 0-12.3-1.3-5.2-1.4-8.8-3.9-3.5-2.5-5.3-6-1.7-3.6-1.7-8 0-3.8 1.3-6.6t3.4-4.8q2.2-1.9 4.9-3.2 2.8-1.2 5.7-1.9-1.3-.6-2.6-1.6-1.2-.9-2.3-2.2-1-1.3-1.6-2.9-.7-1.6-.7-3.3 0-2 .6-3.6t1.7-3q1.1-1.4 2.8-2.7 1.7-1.2 3.8-2.5-5.5-2.4-8.7-7.6-3.1-5.2-3.1-12.2 0-5.6 1.7-10t5.1-7.4q3.3-3.1 8.3-4.7 4.9-1.7 11.4-1.7 1.2 0 2.8.2l3 .4q1.5.2 2.8.4 1.4.3 2.1.5zm-26 78.9q0 1.5.6 3 .7 1.4 2.2 2.6 1.5 1.1 3.9 1.8 2.4.6 5.9.6 9.7 0 14.6-2.7 4.9-2.8 4.9-7.4 0-3.9-3.1-5.2-3-1.3-9.4-1.3h-8.7q-1.7 0-3.6.5-1.9.3-3.5 1.3-1.7 1-2.8 2.7-1 1.6-1 4.1zm6.8-56.4q0 5.7 2.1 8.8 2.1 3.1 6.4 3.1 4.4 0 6.4-3.1t2-8.8q0-5.6-2-8.8-1.9-3.3-6.4-3.3-8.5 0-8.5 12.1zm115.1 11.9q0 8.6-2.2 15.3-2.2 6.7-6.3 11.3-4.1 4.6-10 7-5.9 2.3-13.3 2.3-6.9 0-12.6-2.3-5.8-2.4-10-7t-6.5-11.3q-2.4-6.7-2.4-15.3 0-8.7 2.2-15.3 2.2-6.7 6.3-11.3 4.2-4.5 10.1-6.9 5.8-2.4 13.3-2.4 6.9 0 12.6 2.4 5.8 2.4 9.9 6.9 4.2 4.6 6.6 11.3 2.3 6.6 2.3 15.3zm-43.9 0q0 10.3 2.9 15.6 2.9 5.2 9.5 5.2 6.5 0 9.4-5.3 2.9-5.3 2.9-15.5 0-10.4-2.9-15.5t-9.6-5.1q-6.5 0-9.4 5.1-2.8 5.1-2.8 15.5zm119.9 0q0 8.6-2.2 15.3-2.2 6.7-6.3 11.3-4.1 4.6-10 7-5.9 2.3-13.3 2.3-6.9 0-12.6-2.3-5.8-2.4-10-7t-6.5-11.3q-2.4-6.7-2.4-15.3 0-8.7 2.2-15.3 2.2-6.7 6.3-11.3 4.2-4.5 10.1-6.9 5.8-2.4 13.3-2.4 6.9 0 12.6 2.4 5.8 2.4 9.9 6.9 4.2 4.6 6.6 11.3 2.3 6.6 2.3 15.3zm-43.9 0q0 10.3 2.9 15.6 2.9 5.2 9.5 5.2 6.5 0 9.4-5.3 2.9-5.3 2.9-15.5 0-10.4-2.9-15.5t-9.6-5.1q-6.5 0-9.4 5.1-2.8 5.1-2.8 15.5zm80.6 35.9q-5.3 0-9.7-2.3-4.4-2.2-7.6-6.7-3.1-4.5-4.9-11.2-1.8-6.7-1.8-15.5 0-8.9 1.8-15.6 1.8-6.8 5-11.3 3.3-4.6 7.8-6.9 4.5-2.3 10-2.3 3.3 0 6.1.9 2.8.7 5 2.1 2.2 1.4 4 3.2 1.8 1.8 3.1 4h.7q-.4-2.4-.7-4.9-.3-2.1-.6-4.4-.2-2.5-.2-4.5v-22.2h18.9V398h-14.4l-3.7-9h-.8q-1.3 2.1-2.9 4-1.7 1.9-3.9 3.3-2.2 1.3-5 2.1-2.7.8-6.2.8zm6.9-15q3.3 0 5.7-1.1 2.3-1.2 3.8-3.5 1.5-2.4 2.1-5.8.8-3.5.8-8.1v-2.1q0-5-.6-8.9-.6-3.9-2-6.5-1.4-2.7-3.9-4-2.4-1.4-6-1.4-6 0-8.8 5.4-2.8 5.3-2.8 15.5 0 10.3 2.8 15.4 2.9 5.1 8.9 5.1z" style="fill:#fff"/></svg>